<?xml version="1.0" encoding="utf-8"?>
<!-- Generator: Adobe Illustrator 21.0.2, SVG Export Plug-In . SVG Version: 6.00 Build 0)  -->
<svg version="1.1" id="Layer_1" xmlns="http://www.w3.org/2000/svg" xmlns:xlink="http://www.w3.org/1999/xlink" x="0px" y="0px"
	 viewBox="0 0 360 360" style="enable-background:new 0 0 360 360;" xml:space="preserve">
<style type="text/css">
	.st0{fill:#FFFFFF;}
	.st1{fill:#DCDBDB;}
	.st2{fill:url(#SVGID_1_);}
	.st3{fill:#FBAB41;}
	.st4{fill:#F4CC91;}
	.st5{fill:url(#SVGID_2_);}
	.st6{fill:url(#SVGID_3_);}
	.st7{fill:url(#SVGID_4_);}
	.st8{fill:url(#SVGID_5_);}
	.st9{fill:url(#SVGID_6_);}
	.st10{fill:url(#SVGID_7_);}
</style>
<g>
	<path class="st0" d="M238.3,76.4V311c0,5.4-4.4,9.8-9.8,9.8H66.4c-5.4,0-9.8-4.4-9.8-9.8V115L105,66.5h123.5
		C233.9,66.5,238.3,71,238.3,76.4z"/>
	<path class="st1" d="M106.1,65.5v39.7c0,5.4-4.4,9.8-9.8,9.8H56.5L105,66.5L106.1,65.5z"/>
	<g>
		
			<linearGradient id="SVGID_1_" gradientUnits="userSpaceOnUse" x1="299.1868" y1="331.9626" x2="331.1015" y2="331.9626" gradientTransform="matrix(0.7071 0.7071 -0.7071 0.7071 322.2504 -423.5774)">
			<stop  offset="0.6168" style="stop-color:#EFB7D4"/>
			<stop  offset="1" style="stop-color:#E1A8CC"/>
		</linearGradient>
		<path class="st2" d="M325.4,26.4l-7.4-7.4c-4.2-4.2-11-4.2-15.1,0l-7.4,7.4c-4.2,4.2-4.2,11,0,15.1l7.4,7.4c4.2,4.2,11,4.2,15.1,0
			l7.4-7.4C329.5,37.4,329.5,30.6,325.4,26.4z"/>
		<path class="st3" d="M301.9,65L179.7,187.3c0.7-1.9,0.3-4.2-1.2-5.7c-2.1-2.1-5.5-2.1-7.6,0c2.1-2.1,2.1-5.5,0-7.6
			c-2.1-2.1-5.5-2.1-7.6,0c2.1-2.1,2.1-5.6,0-7.7c-1.8-1.8-4.6-2.1-6.7-0.7L279.3,42.5c3.8-3.8,10.1-3.8,13.9,0l8.7,8.7
			C305.7,55,305.7,61.2,301.9,65z"/>
		<polygon class="st4" points="155.5,166.2 155.5,166.3 155.5,166.2 		"/>
		<polygon class="st4" points="178.1,188.8 178.1,188.8 178.1,188.8 		"/>
		<path class="st4" d="M179.7,187.3l-1.2,1.2c-0.1,0.1-0.2,0.2-0.4,0.3l0,0l-5.7,1.5l0,0l-2.9,0.8l-6.8,1.8l-15.4,4.1l4.1-15.4
			l1.8-6.8l0.9-3.2l1.4-5.3l0,0c0.1-0.1,0.2-0.2,0.3-0.4l0.5-0.5c2.1-1.3,4.9-1.1,6.7,0.7c2.1,2.1,2.1,5.5,0,7.7
			c2.1-2.1,5.5-2.1,7.6,0c2.1,2.1,2.1,5.5,0,7.6c2.1-2.1,5.5-2.1,7.6,0C180,183.1,180.4,185.3,179.7,187.3z"/>
		<polygon class="st4" points="155.5,166.2 155.5,166.3 155.5,166.2 		"/>
		<polygon class="st4" points="178.1,188.8 178.1,188.8 178.1,188.8 		"/>
		
			<linearGradient id="SVGID_2_" gradientUnits="userSpaceOnUse" x1="304.9923" y1="442.7866" x2="313.9674" y2="442.7866" gradientTransform="matrix(0.7071 0.7071 -0.7071 0.7071 322.2504 -423.5774)">
			<stop  offset="0.5288" style="stop-color:#FBAB41"/>
			<stop  offset="1" style="stop-color:#F78F29"/>
		</linearGradient>
		<path class="st5" d="M286.9,50.1l-0.7-0.7c-1.6-1.6-4.1-1.6-5.7,0L169.1,160.9c-1.6,1.6-1.6,4.1,0,5.7l0.7,0.7
			c1.6,1.6,4.1,1.6,5.7,0L286.9,55.8C288.4,54.3,288.4,51.7,286.9,50.1z"/>
		
			<linearGradient id="SVGID_3_" gradientUnits="userSpaceOnUse" x1="317.6388" y1="442.7866" x2="326.614" y2="442.7866" gradientTransform="matrix(0.7071 0.7071 -0.7071 0.7071 322.2504 -423.5774)">
			<stop  offset="0.5288" style="stop-color:#FBAB41"/>
			<stop  offset="1" style="stop-color:#F78F29"/>
		</linearGradient>
		<path class="st6" d="M295.8,59.1l-0.7-0.7c-1.6-1.6-4.1-1.6-5.7,0L178.1,169.8c-1.6,1.6-1.6,4.1,0,5.7l0.7,0.7
			c1.6,1.6,4.1,1.6,5.7,0L295.8,64.8C297.4,63.2,297.4,60.6,295.8,59.1z"/>
		
			<linearGradient id="SVGID_4_" gradientUnits="userSpaceOnUse" x1="529.1721" y1="-131.0488" x2="541.8893" y2="-131.0488" gradientTransform="matrix(-0.7071 -0.7071 0.7071 -0.7071 622.5 479.1973)">
			<stop  offset="0.5288" style="stop-color:#FBAB41"/>
			<stop  offset="1" style="stop-color:#F78F29"/>
		</linearGradient>
		<polygon class="st7" points="147.3,197.1 148.9,190.9 150.6,184.8 155.1,189.3 159.5,193.8 153.4,195.4 		"/>
		
			<linearGradient id="SVGID_5_" gradientUnits="userSpaceOnUse" x1="299.1868" y1="352.8287" x2="331.0852" y2="352.8287" gradientTransform="matrix(0.7071 0.7071 -0.7071 0.7071 322.2504 -423.5774)">
			<stop  offset="0.2511" style="stop-color:#C1BEBC"/>
			<stop  offset="0.7075" style="stop-color:#BDBAB8"/>
			<stop  offset="1" style="stop-color:#7D7D7D"/>
		</linearGradient>
		<polygon class="st8" points="298.5,68.4 275.9,45.9 292.7,29.1 315.3,51.6 		"/>
	</g>
	<linearGradient id="SVGID_6_" gradientUnits="userSpaceOnUse" x1="124.0584" y1="248.0443" x2="219.3298" y2="248.0443">
		<stop  offset="0.5288" style="stop-color:#FBAB41"/>
		<stop  offset="1" style="stop-color:#F78F29"/>
	</linearGradient>
	<polygon class="st9" points="171.7,206.8 195.5,248 219.3,289.3 171.7,289.3 124.1,289.3 147.9,248 	"/>
	<linearGradient id="SVGID_7_" gradientUnits="userSpaceOnUse" x1="68.9382" y1="159.9503" x2="143.2019" y2="159.9503">
		<stop  offset="0.5288" style="stop-color:#FBAB41"/>
		<stop  offset="1" style="stop-color:#F78F29"/>
	</linearGradient>
	<circle class="st10" cx="106.1" cy="160" r="37.1"/>
</g>
</svg>
