<?xml version="1.0" encoding="utf-8"?>
<!-- Generator: Adobe Illustrator 21.0.2, SVG Export Plug-In . SVG Version: 6.00 Build 0)  -->
<svg version="1.1" id="Layer_1" xmlns="http://www.w3.org/2000/svg" xmlns:xlink="http://www.w3.org/1999/xlink" x="0px" y="0px"
	 viewBox="0 0 360 360" style="enable-background:new 0 0 360 360;" xml:space="preserve">
<style type="text/css">
	.st0{fill:#75552D;}
	.st1{fill:#F4CC91;}
	.st2{fill:#C3BB9A;}
	.st3{fill:#FBAB41;}
	.st4{fill:url(#SVGID_1_);}
	.st5{fill:url(#SVGID_2_);}
	.st6{fill:#1F282B;}
</style>
<g>
	<path class="st0" d="M141.4,324.4h-5.6c-6.6,0-12-5.4-12-12V192c0-6.6,5.4-12,12-12h5.6c6.6,0,12,5.4,12,12v120.4
		C153.4,319,148,324.4,141.4,324.4z"/>
	<path class="st0" d="M185.9,258.4H95.2c-6.6,0-12-5.4-12-12V102.3c0-26.8,22-48.8,48.8-48.8h17.2c26.8,0,48.8,22,48.8,48.8v144.1
		C197.9,253,192.5,258.4,185.9,258.4z"/>
	<path class="st1" d="M151.4,317.9h-5.6c-6.6,0-12-5.4-12-12V185.5c0-6.6,5.4-12,12-12h5.6c6.6,0,12,5.4,12,12v120.4
		C163.4,312.5,158,317.9,151.4,317.9z"/>
	<path class="st2" d="M194,245.7h-90.8c-6.6,0-12-5.4-12-12V89.6c0-26.8,22-48.8,48.8-48.8h17.2c26.8,0,48.8,22,48.8,48.8v144.1
		C206,240.3,200.6,245.7,194,245.7z"/>
	<path class="st3" d="M194,240.5h-90.8c-6.6,0-12-5.4-12-12V84.4c0-26.8,22-48.8,48.8-48.8h17.2c26.8,0,48.8,22,48.8,48.8v144.1
		C206,235.1,200.6,240.5,194,240.5z"/>
	<linearGradient id="SVGID_1_" gradientUnits="userSpaceOnUse" x1="154.1223" y1="138.0247" x2="188.6902" y2="138.0247">
		<stop  offset="0.5288" style="stop-color:#FBAB41"/>
		<stop  offset="1" style="stop-color:#F78F29"/>
	</linearGradient>
	<path class="st4" d="M176.7,222.6h-10.6c-6.6,0-12-5.4-12-12V65.5c0-6.6,5.4-12,12-12h10.6c6.6,0,12,5.4,12,12v145.1
		C188.7,217.2,183.3,222.6,176.7,222.6z"/>
	<linearGradient id="SVGID_2_" gradientUnits="userSpaceOnUse" x1="105.9741" y1="138.0247" x2="140.542" y2="138.0247">
		<stop  offset="0.5288" style="stop-color:#FBAB41"/>
		<stop  offset="1" style="stop-color:#F78F29"/>
	</linearGradient>
	<path class="st5" d="M128.5,222.6H118c-6.6,0-12-5.4-12-12V65.5c0-6.6,5.4-12,12-12h10.6c6.6,0,12,5.4,12,12v145.1
		C140.5,217.2,135.1,222.6,128.5,222.6z"/>
	<g>
		<g>
			<path class="st6" d="M184.8,148.4v36c0,4.3,2.2,5.2,5.6,4.7l0.3,8.4c-10,1.8-17.2-0.6-17.2-13v-36.1H184.8z"/>
			<path class="st6" d="M145.5,98.7c9.6,0,20.2,5.2,22,17.7h-11.8c-1.7-4.8-5.2-6.7-10.2-6.7c-7.1,0-11.7,5.1-11.7,12.8
				c0,6.8,4.5,12.7,11.7,12.7c5.1,0,9.1-2.3,10.4-7.4h11.8c-1.8,13.3-12.2,18.5-22.1,18.5c-12,0-23.9-8-23.9-23.7
				C121.6,106.5,133.5,98.7,145.5,98.7z"/>
			<path class="st6" d="M195.2,146v-18.5c0-3.7-2.1-5.5-4.5-5.5c-2.7,0-5.5,2-5.5,5.7V146h-11.4V97.2h11.4v20.7
				c1.6-3.2,5.3-4.9,8.9-4.9c9.4,0,12.6,6.2,12.6,14.5V146H195.2z"/>
			<path class="st6" d="M160.4,150c3.3,0.1,6.5,2.2,6.5,6.4c0,4.3-3.2,6.4-6.5,6.5c-3.3,0.1-6.7-2.1-6.7-6.5
				C153.7,152,157.1,149.9,160.4,150z M165.9,197.2h-11.4l0.1-31.8h11.3V197.2z"/>
			<path class="st6" d="M206.4,148.4v36c0,4.3,2.2,5.2,5.6,4.7l0.3,8.4c-10,1.8-17.2-0.6-17.2-13v-36.1H206.4z"/>
		</g>
		<g>
			<g>
				<path class="st6" d="M268.3,165.5c4.3,0.1,8.6,2.9,8.6,8.5c0,5.7-4.2,8.5-8.6,8.6c-4.4,0.1-8.8-2.8-8.8-8.6
					C259.4,168.3,263.9,165.4,268.3,165.5z M275.6,228h-15l0.1-42h14.9V228z"/>
				<path class="st3" d="M268.3,165.5c-4.4-0.1-8.8,2.7-8.8,8.5c0,5.7,4.4,8.7,8.8,8.6c4.3-0.1,8.6-2.9,8.6-8.6
					C276.8,168.4,272.6,165.6,268.3,165.5z"/>
				<path class="st6" d="M248.7,185.4v30.1c0,2.8,0.1,4.2,3.5,4.2v8.2c-5.7,1.3-18.2,3.2-18.2-6.2c-2.2,4.5-7.3,6.9-12.2,6.9
					c-12.7,0-15.7-8.3-15.7-19v-24.1h15.2v24.1c0,5.1,2.6,7.3,5.6,7.3c3.5,0,6.8-2.9,6.8-7.6v-23.9H248.7z"/>
			</g>
		</g>
	</g>
</g>
</svg>
