<?xml version="1.0" encoding="utf-8"?>
<!-- Generator: Adobe Illustrator 21.0.2, SVG Export Plug-In . SVG Version: 6.00 Build 0)  -->
<svg version="1.1" id="Layer_1" xmlns="http://www.w3.org/2000/svg" xmlns:xlink="http://www.w3.org/1999/xlink" x="0px" y="0px"
	 viewBox="0 0 360 360" style="enable-background:new 0 0 360 360;" xml:space="preserve">
<style type="text/css">
	.st0{fill:#FCF8F2;}
	.st1{fill:#F2E3D0;}
	.st2{fill:url(#SVGID_1_);}
	.st3{fill:#4D4B48;}
	.st4{fill:#353635;}
	.st5{fill:#242221;}
	.st6{fill:url(#SVGID_2_);}
	.st7{fill:url(#SVGID_3_);}
	.st8{fill:url(#SVGID_4_);}
	.st9{fill:url(#SVGID_5_);}
	.st10{fill:url(#SVGID_6_);}
	.st11{fill:url(#SVGID_7_);}
</style>
<g>
	<path class="st0" d="M326.8,211.8v108.6c0,0.6,0,1.2,0,1.7c0,0.4,0,0.9,0,1.3c0,0.3,0,0.6,0,0.9c0,0.4,0,0.8,0,1.3
		c0,0.6,0,1.1-0.1,1.7c0,0.6-0.1,1.1-0.1,1.7c0,0.6-0.1,1.2-0.1,1.8c0,0.5-0.1,1.1-0.1,1.6c-0.9,9.9-2.9,19.6-5.8,28.8H57.3
		c-4.1-12.9-6.3-26.6-6.3-40.8V211.8c0-2.1,0-4.2,0.1-6.3h275.6C326.7,207.6,326.8,209.7,326.8,211.8z"/>
	<path class="st1" d="M326.8,320.4c0,0.6,0,1.2,0,1.7c0,0.4,0,0.9,0,1.3c0,0.3,0,0.6,0,0.9c0,0.4,0,0.8,0,1.3c0,0.6,0,1.1-0.1,1.7
		c0,0.6-0.1,1.1-0.1,1.7c0,0.6-0.1,1.2-0.1,1.8c0,0.5-0.1,1.1-0.1,1.6c-1,11.7-3.4,21.5-5.7,28.8H169.9v-14.3H214l-25.3-100l8-13.8
		l35.4-27.6l10.5-8.2l76.6,8.2l7.4,0.8C326.6,206.3,326.8,287.9,326.8,320.4z"/>
	<linearGradient id="SVGID_1_" gradientUnits="userSpaceOnUse" x1="188.7589" y1="165.6918" x2="188.7589" y2="246.9389">
		<stop  offset="0.173" style="stop-color:#F2E3D0"/>
		<stop  offset="0.8374" style="stop-color:#B38F6A"/>
	</linearGradient>
	<ellipse class="st2" cx="188.8" cy="206.3" rx="137.9" ry="40.6"/>
	<path class="st3" d="M195.6,142.6c0,0-11.9,32.7-14,104.3l-1.9,0c-5.4-67.6-12.7-104.3-12.7-104.3H195.6z"/>
	<circle class="st4" cx="115" cy="291.1" r="13.1"/>
	<circle class="st4" cx="270.6" cy="291.1" r="13.1"/>
	<g>
		<path class="st5" d="M136.6,243.8l-0.2,0l-5.9-0.7l-1.2-0.1l-4.4-18.6v-6.1c0,0,0,0,0,0l1.6,1.6l3.2,3.2L136.6,243.8z"/>
		<path class="st5" d="M130.5,243l-1.2-0.1l-1.2-0.1C113.3,206.4,89,172.7,70.4,154l15.2-15.2c0,0,0.6,0.6,1.6,1.9
			c6.3,7.5,29.1,37.1,39.3,79c0.2,1,0.5,1.9,0.7,2.9C128.6,229.2,129.8,236,130.5,243z"/>
		<path class="st3" d="M137.5,243.9l-1-0.1l-0.2,0c-2.7-7.2-5.9-14.2-9.3-21.1c-0.7-1.5-1.5-3-2.2-4.4c0,0,0,0,0,0
			c-14.4-27.8-33-52.4-47.9-67.3l15.2-15.2C92.2,135.7,132.3,180.1,137.5,243.9z"/>
	</g>
	<linearGradient id="SVGID_2_" gradientUnits="userSpaceOnUse" x1="65.082" y1="103.0975" x2="38.22" y2="127.8742">
		<stop  offset="0.5547" style="stop-color:#F4ED5A"/>
		<stop  offset="0.9536" style="stop-color:#D9D547"/>
	</linearGradient>
	<path class="st6" d="M73.7,131.9l-7,7c-1,1-2.7,1-3.7,0l-12.5-12.5c-1.6,0.4-3.3,0.7-5,0.7c-10.1,0-18.3-8.2-18.3-18.3
		c0-10.1,8.2-18.3,18.3-18.3s18.3,8.2,18.3,18.3c0,2.7-0.6,5.4-1.7,7.7l11.7,11.7C74.7,129.2,74.7,130.8,73.7,131.9z"/>
	<linearGradient id="SVGID_3_" gradientUnits="userSpaceOnUse" x1="163.1208" y1="98.4693" x2="204.9293" y2="98.4693">
		<stop  offset="0.5815" style="stop-color:#F4ED5A"/>
		<stop  offset="0.9536" style="stop-color:#D9D547"/>
	</linearGradient>
	<path class="st7" d="M186.8,127.9l-10.7,0c-1.6,0-2.8-1.3-2.8-2.8l0-19.1c-1.6-0.9-3-2-4.3-3.3c-7.7-7.7-7.7-20.2,0-27.9
		c7.7-7.7,20.2-7.7,27.9,0c7.7,7.7,7.7,20.2,0,27.9c-2.1,2.1-4.5,3.6-7.2,4.6v17.8C189.6,126.6,188.3,127.9,186.8,127.9z"/>
	<linearGradient id="SVGID_4_" gradientUnits="userSpaceOnUse" x1="284.0471" y1="117.0821" x2="333.184" y2="117.0821">
		<stop  offset="0.5547" style="stop-color:#F4ED5A"/>
		<stop  offset="0.9536" style="stop-color:#D9D547"/>
	</linearGradient>
	<path class="st8" d="M291.8,140l-7-7c-1-1-1-2.7,0-3.7l12.5-12.5c-0.4-1.6-0.7-3.3-0.7-5c0-10.1,8.2-18.3,18.3-18.3
		c10.1,0,18.3,8.2,18.3,18.3S325,130,314.9,130c-2.7,0-5.4-0.6-7.7-1.7L295.5,140C294.5,141,292.8,141,291.8,140z"/>
	<g>
		<path class="st5" d="M291.3,154c-19,19-43.9,53.6-58.6,90.8l-0.5,0l-1.2,0.1c0.7-7.7,2-15.2,3.6-22.3c0.3-1.3,0.6-2.6,0.9-3.9
			c10.3-41.4,32.8-70.5,39-78c1-1.3,1.6-1.9,1.6-1.9L291.3,154z"/>
		<polygon class="st5" points="240.3,217.3 232.2,244.9 230.9,245 224.6,245.5 224.5,245.5 230.5,226.1 235.5,218.8 236.1,217.7 
			237.1,217.6 		"/>
		<path class="st3" d="M284.6,150.9c-14.8,14.8-33.2,39.1-47.6,66.7c-0.9,1.7-1.7,3.3-2.5,5c-3.7,7.5-7.1,15.1-10,22.9l-0.1,0
			l-0.5,0c4.7-64.7,45.5-109.9,45.5-109.9L284.6,150.9z"/>
	</g>
	<linearGradient id="SVGID_5_" gradientUnits="userSpaceOnUse" x1="74.4994" y1="127.2809" x2="62.4247" y2="138.743">
		<stop  offset="0.7488" style="stop-color:#E2E2E2"/>
		<stop  offset="0.9536" style="stop-color:#CFCFCE"/>
	</linearGradient>
	<path class="st9" d="M81.5,136.6L71.1,147c-1.7,1.7-4.5,1.7-6.2,0l-10.4-10.4c-1.7-1.7-1.7-4.5,0-6.2l10.4-10.4
		c1.7-1.7,4.5-1.7,6.2,0l10.4,10.4C83.2,132,83.2,134.8,81.5,136.6z"/>
	<linearGradient id="SVGID_6_" gradientUnits="userSpaceOnUse" x1="168.412" y1="126.4511" x2="193.791" y2="126.4511">
		<stop  offset="0.7488" style="stop-color:#E2E2E2"/>
		<stop  offset="0.9536" style="stop-color:#CFCFCE"/>
	</linearGradient>
	<path class="st10" d="M189.4,139.1h-16.6c-2.4,0-4.4-2-4.4-4.4v-16.6c0-2.4,2-4.4,4.4-4.4h16.6c2.4,0,4.4,2,4.4,4.4v16.6
		C193.8,137.2,191.8,139.1,189.4,139.1z"/>
	
		<linearGradient id="SVGID_7_" gradientUnits="userSpaceOnUse" x1="360.0219" y1="-32.8177" x2="347.9471" y2="-21.3556" gradientTransform="matrix(0 1 -1 0 264.6227 -220.0922)">
		<stop  offset="7.963811e-02" style="stop-color:#CFCFCE"/>
		<stop  offset="0.4249" style="stop-color:#E2E2E2"/>
	</linearGradient>
	<path class="st11" d="M288.2,147l-10.4-10.4c-1.7-1.7-1.7-4.5,0-6.2l10.4-10.4c1.7-1.7,4.5-1.7,6.2,0l10.4,10.4
		c1.7,1.7,1.7,4.5,0,6.2L294.4,147C292.7,148.7,289.9,148.7,288.2,147z"/>
	<g>
		<g>
			<path class="st3" d="M31.2,86.6c-2.4-1.3-4.5-2.9-6.4-4.9c-1.6-1.7-4.1,0.8-2.5,2.5c2.1,2.2,4.4,4,7.1,5.5
				C31.4,90.8,33.2,87.7,31.2,86.6L31.2,86.6z"/>
		</g>
	</g>
	<g>
		<g>
			<path class="st3" d="M50.8,83c0.1-2.7-0.2-5.4-0.8-8c-0.5-2.2-4-1.3-3.4,0.9c0.6,2.3,0.8,4.7,0.7,7.1
				C47.1,85.3,50.7,85.3,50.8,83L50.8,83z"/>
		</g>
	</g>
	<g>
		<g>
			<path class="st3" d="M22.1,104.6c-2.8-0.5-5.6-1.1-8.3-1.6c-2.2-0.4-3.2,3-0.9,3.4c2.8,0.5,5.6,1.1,8.3,1.6
				C23.4,108.5,24.3,105.1,22.1,104.6L22.1,104.6z"/>
		</g>
	</g>
	<g>
		<g>
			<path class="st3" d="M69.3,95.1c1.5-0.3,2.9-0.6,4.4-0.9c0.9-0.2,1.5-1.3,1.2-2.2c-0.3-1-1.2-1.4-2.2-1.2
				c-1.5,0.3-2.9,0.6-4.4,0.9c-0.9,0.2-1.5,1.3-1.2,2.2C67.4,94.8,68.4,95.3,69.3,95.1L69.3,95.1z"/>
		</g>
	</g>
	<g>
		<g>
			<path class="st3" d="M32.3,125.8c-1.2,1.4-2.4,2.9-3.7,4.3c-0.6,0.7-0.7,1.8,0,2.5c0.6,0.6,1.9,0.7,2.5,0
				c1.2-1.4,2.4-2.9,3.7-4.3c0.6-0.7,0.7-1.8,0-2.5C34.1,125.2,32.9,125.1,32.3,125.8L32.3,125.8z"/>
		</g>
	</g>
	<g>
		<g>
			<path class="st3" d="M201.6,74.1c2-1.8,3.7-3.9,5.1-6.2c1.2-2-1.9-3.7-3.1-1.8c-1.3,2.1-2.8,3.9-4.5,5.5
				C197.4,73.1,199.9,75.6,201.6,74.1L201.6,74.1z"/>
		</g>
	</g>
	<g>
		<g>
			<path class="st3" d="M166,69.1c-1.6-2.3-3.2-4.7-4.7-7c-1.3-1.9-4.3-0.1-3.1,1.8c1.6,2.3,3.2,4.7,4.7,7
				C164.2,72.8,167.3,71,166,69.1L166,69.1z"/>
		</g>
	</g>
	<g>
		<g>
			<path class="st3" d="M206.2,95.7c1.2,0.8,2.5,1.6,3.7,2.5c0.8,0.5,2,0.2,2.4-0.6c0.5-0.9,0.2-1.9-0.6-2.4
				c-1.2-0.8-2.5-1.6-3.7-2.5c-0.8-0.5-2-0.2-2.4,0.6C205,94.2,205.4,95.2,206.2,95.7L206.2,95.7z"/>
		</g>
	</g>
	<g>
		<g>
			<path class="st3" d="M158.2,91.3c-1.9,0.1-3.8,0.3-5.6,0.4c-2.3,0.2-2.3,3.7,0,3.5c1.9-0.1,3.8-0.3,5.6-0.4
				C160.5,94.6,160.5,91.1,158.2,91.3L158.2,91.3z"/>
		</g>
	</g>
	<g>
		<g>
			<path class="st3" d="M331.4,90c0.6-2.7,1.6-5.1,3.1-7.4c1.2-2-1.9-3.7-3.1-1.8c-1.6,2.6-2.7,5.3-3.4,8.3
				C327.5,91.2,330.9,92.2,331.4,90L331.4,90z"/>
		</g>
	</g>
	<g>
		<g>
			<path class="st3" d="M183.4,62.7c0.3-2.5,1.1-5,2.1-7.3c1-2.1-2.1-3.9-3.1-1.8c-1.4,2.9-2.2,5.9-2.6,9
				C179.6,64.9,183.1,64.9,183.4,62.7L183.4,62.7z"/>
		</g>
	</g>
	<g>
		<g>
			<path class="st3" d="M340.1,107.8c2.6-0.6,5.1-1.6,7.5-2.9c2-1.1,0.2-4.2-1.8-3.1c-2.1,1.2-4.3,2-6.7,2.5
				C336.9,104.9,337.9,108.4,340.1,107.8L340.1,107.8z"/>
		</g>
	</g>
	<g>
		<g>
			<path class="st3" d="M311.6,85.9c-0.2-2.8-0.4-5.6-0.6-8.5c-0.2-2.3-3.7-2.3-3.5,0c0.2,2.8,0.4,5.6,0.6,8.5
				C308.2,88.2,311.8,88.2,311.6,85.9L311.6,85.9z"/>
		</g>
	</g>
	<g>
		<g>
			<path class="st3" d="M333.3,128.9c0.7,1.3,1.3,2.6,2,4c0.4,0.9,1.6,1.1,2.4,0.6c0.9-0.5,1.1-1.6,0.6-2.4c-0.7-1.3-1.3-2.6-2-4
				c-0.4-0.9-1.6-1.1-2.4-0.6C333.1,127,332.9,128.1,333.3,128.9L333.3,128.9z"/>
		</g>
	</g>
	<g>
		<g>
			<path class="st3" d="M293.9,101.3c-1.7-0.8-3.4-1.6-5.1-2.4c-0.9-0.4-1.9-0.2-2.4,0.6c-0.5,0.8-0.2,2,0.6,2.4
				c1.7,0.8,3.4,1.6,5.1,2.4c0.9,0.4,1.9,0.2,2.4-0.6C295,103,294.8,101.7,293.9,101.3L293.9,101.3z"/>
		</g>
	</g>
</g>
</svg>
