<?xml version="1.0" encoding="utf-8"?>
<!-- Generator: Adobe Illustrator 21.0.2, SVG Export Plug-In . SVG Version: 6.00 Build 0)  -->
<svg version="1.1" id="Layer_1" xmlns="http://www.w3.org/2000/svg" xmlns:xlink="http://www.w3.org/1999/xlink" x="0px" y="0px"
	 viewBox="0 0 360 360" style="enable-background:new 0 0 360 360;" xml:space="preserve">
<style type="text/css">
	.st0{fill:url(#SVGID_1_);}
	.st1{fill:#231F20;}
</style>
<g id="c925oJ_1_">
</g>
<linearGradient id="SVGID_1_" gradientUnits="userSpaceOnUse" x1="33.3807" y1="180" x2="326.6193" y2="180">
	<stop  offset="0.5288" style="stop-color:#FBAB41"/>
	<stop  offset="1" style="stop-color:#F78F29"/>
</linearGradient>
<circle class="st0" cx="180" cy="180" r="146.6"/>
<g>
	<path class="st1" d="M102.8,153.4h3.3v35.1h-9.2v-16.2l-7.5,7.8h-1.1l-7.5-7.8v16.2h-9.2v-35.1H75l13.9,15.2L102.8,153.4z"/>
	<path class="st1" d="M117.1,153.1c2.5,0.1,4.9,1.7,4.9,4.8c0,3.2-2.4,4.8-4.9,4.9c-2.5,0-5-1.6-5-4.9S114.6,153.1,117.1,153.1z
		 M121.2,188.5h-8.5l0.1-23.8h8.5V188.5z"/>
	<path class="st1" d="M144.1,188.5v-13.8c0-2.8-1.7-4.2-3.5-4.2c-2,0-4,1.4-4,4.3v13.7H128v-16.8c0-1.9,0.1-2.8-2-2.8v-4.7
		c3.4-0.8,10.2-1.4,10.3,3.4c1.4-2.6,4.2-3.9,7-3.9c7,0,9.4,4.8,9.4,10.9v13.8H144.1z"/>
	<path class="st1" d="M174.6,185.1c-1.2,2.6-3.7,3.9-6.5,4c-7.4,0.2-11.6-5.5-11.6-12.6c0-7.2,5.4-12.7,11.8-12.7
		c1.5,0,3.1,0.3,4.7,1V152h8.5V181c0,1.9-0.1,2.8,2,2.8v4.7c-3.2,0.8-8.9,1.3-8.9-3V185.1z M173.2,172c-1.1-0.5-2.2-0.8-3.2-0.8
		c-2.6,0-4.6,1.9-4.6,5.2c0,3,1.2,5.2,4.2,5.2c2.4,0,3.6-2,3.6-4.2V172z"/>
	<path class="st1" d="M231.4,188.5v-13.8c0-2.8-1.5-4.2-3.2-4.1c-1.7,0-3.3,1.5-3.3,4.1v13.8h-8.4v-13.8c0-2.9-1.6-4.2-3.4-4.1
		c-1.8,0-3.6,1.5-3.6,4.3v13.7h-8.5v-16.8c0-1.9,0.1-2.8-2-2.8v-4.7c3-1,10.3-1.5,10.3,3.4c1.3-2.6,4.2-3.9,7-3.9
		c4.2,0,6.5,1.7,7.7,4.3c1.5-2.8,4.7-4.3,7.7-4.3c7,0,8.4,4.8,8.4,10.9v13.8H231.4z"/>
	<path class="st1" d="M253.1,188.9c-4.5,0-8.6-2.9-8.8-7.6c-0.2-6.1,3.8-9,9.3-9c1.8,0,3.9,0.3,5.4,1.3V173c0-2.5-3.3-2.8-5.2-2.8
		c-2.4,0-4.6,0.2-6.7,1.3l-1-6c2.5-1.2,5.9-1.8,9.2-1.8c6.5,0,12,2.3,12,9.5v7.8c0,1.8,0,2.8,2,2.8v4.7c-3.4,0.8-8,1.2-8.6-3.3
		C259.5,188,255.9,188.9,253.1,188.9z M259,178.9c-1-0.8-2.5-1.2-3.8-1.1c-1.8,0.1-2.9,1.1-2.6,2.9c0.2,1.1,1.1,1.7,2.3,1.7
		c1.8,0,4.1-0.9,4.1-3V178.9z"/>
	<path class="st1" d="M281.3,167.6c1.4-2.6,4.1-4,7-4c7.1,0.1,10.8,5.9,10.8,12.6c0,9-7.8,15.2-16.1,11.8v12.8h-8.5v-29
		c0-1.9,0.1-2.8-2-2.8v-4.7c3-0.7,8.9-1.4,8.9,3.1V167.6z M282.7,180.8c4.2,1.8,7.8,0.2,7.8-4.5c0-2.5-1.3-5.2-4.1-5.1
		c-2.4,0-3.7,2.1-3.7,4.2V180.8z"/>
</g>
</svg>
