<?xml version="1.0" encoding="utf-8"?>
<!-- Generator: Adobe Illustrator 21.0.2, SVG Export Plug-In . SVG Version: 6.00 Build 0)  -->
<svg version="1.1" id="Layer_1" xmlns="http://www.w3.org/2000/svg" xmlns:xlink="http://www.w3.org/1999/xlink" x="0px" y="0px"
	 viewBox="0 0 360 360" style="enable-background:new 0 0 360 360;" xml:space="preserve">
<style type="text/css">
	.st0{fill:url(#SVGID_1_);}
	.st1{fill:#231F20;}
</style>
<g id="c925oJ_1_">
</g>
<linearGradient id="SVGID_1_" gradientUnits="userSpaceOnUse" x1="33.3807" y1="180" x2="326.6193" y2="180">
	<stop  offset="0.5288" style="stop-color:#FBAB41"/>
	<stop  offset="1" style="stop-color:#F78F29"/>
</linearGradient>
<circle class="st0" cx="180" cy="180" r="146.6"/>
<g>
	<path class="st1" d="M107.4,159.3h2.9v31.6h-8.2v-14.5l-6.7,7h-0.9l-6.7-7v14.5h-8.2v-31.6h2.9L95,172.9L107.4,159.3z"/>
	<path class="st1" d="M120.4,159.1c2.2,0,4.4,1.5,4.4,4.3c0,2.9-2.2,4.3-4.4,4.4c-2.2,0-4.5-1.4-4.5-4.4S118.1,159,120.4,159.1z
		 M124.1,190.9h-7.6l0-21.4h7.6V190.9z"/>
	<path class="st1" d="M144.6,190.9v-12.4c0-2.5-1.5-3.7-3.2-3.7c-1.8,0-3.6,1.3-3.6,3.9v12.3h-7.6v-15.1c0-1.7,0.1-2.5-1.8-2.5v-4.2
		c3-0.7,9.1-1.2,9.3,3c1.2-2.3,3.8-3.5,6.3-3.5c6.3,0,8.5,4.3,8.5,9.8v12.4H144.6z"/>
	<path class="st1" d="M172.1,187.9c-1.1,2.3-3.3,3.5-5.8,3.6c-6.6,0.1-10.4-4.9-10.4-11.3c0-6.5,4.9-11.4,10.6-11.4
		c1.4,0,2.7,0.3,4.2,0.9V158h7.6v26.1c0,1.7-0.1,2.5,1.8,2.5v4.2c-2.9,0.7-8,1.2-8-2.7V187.9z M170.8,176.1c-1-0.4-2-0.7-2.9-0.7
		c-2.4,0-4.1,1.7-4.1,4.7c0,2.7,1.1,4.6,3.8,4.6c2.1,0,3.3-1.8,3.3-3.8V176.1z"/>
	<path class="st1" d="M223.9,159.3h2.9v31.6h-8.2v-14.5l-6.7,7h-0.9l-6.7-7v14.5H196v-31.6h2.9l12.5,13.6L223.9,159.3z"/>
	<path class="st1" d="M239.1,191.2c-4,0-7.7-2.6-7.9-6.8c-0.2-5.5,3.4-8.1,8.4-8.1c1.6,0,3.5,0.3,4.9,1.2v-0.7c0-2.2-3-2.5-4.7-2.5
		c-2.1,0-4.1,0.2-6,1.2l-0.9-5.4c2.3-1,5.3-1.6,8.2-1.6c5.9,0,10.8,2.1,10.8,8.5v7c0,1.6,0,2.5,1.8,2.5v4.2c-3.1,0.7-7.2,1.1-7.7-3
		C244.9,190.4,241.7,191.2,239.1,191.2z M244.5,182.3c-0.9-0.7-2.2-1.1-3.4-1c-1.6,0.1-2.6,1-2.3,2.6c0.2,1,1,1.5,2,1.5
		c1.6,0,3.7-0.9,3.7-2.7V182.3z"/>
	<path class="st1" d="M264.5,172.1c1.2-2.4,3.7-3.6,6.3-3.6c6.3,0.1,9.7,5.3,9.7,11.3c0,8.1-7,13.6-14.5,10.6V202h-7.6v-26.1
		c0-1.7,0.1-2.6-1.8-2.6v-4.2c2.7-0.6,8-1.3,8,2.8V172.1z M265.8,183.9c3.7,1.7,7,0.2,7-4c0-2.2-1.2-4.7-3.7-4.6
		c-2.1,0-3.3,1.9-3.3,3.8V183.9z"/>
</g>
<rect x="-321.1" y="104.1" style="fill:none;" width="213.7" height="162.3"/>
<text transform="matrix(1 0 0 1 -321.0599 136.9095)" class="st1" style="font-family:'Intro-Black'; font-size:45px;">Mind Map</text>
</svg>
